# Blender v2.79 (sub 0) OBJ File: ''
# www.blender.org
mtllib hollow_slab.mtl
o Plane.002_Plane.003
v 0.472405 0.256850 0.476612
v -0.497970 0.256850 0.476612
v 0.461372 -0.002748 0.501687
v -0.486938 -0.002748 0.501687
vn 0.0000 -0.0961 -0.9954
usemtl None
s off
f 1//1 3//1 4//1 2//1
o Plane.001
v 0.486731 0.255792 -0.487944
v -0.483641 0.255792 -0.487944
v 0.475700 -0.009360 -0.498439
v -0.472610 -0.009360 -0.498439
vn 0.0000 0.0395 -0.9992
usemtl None
s off
f 5//2 7//2 8//2 6//2
o Plane
v -0.484594 0.257309 0.477105
v 0.480037 0.257309 0.477105
v -0.484594 0.257309 -0.487526
v 0.480037 0.257309 -0.487526
vn 0.0000 1.0000 0.0000
usemtl None
s off
f 9//3 10//3 12//3 11//3
o stairs_bottom
v -0.500000 0.001104 0.500000
v -0.500000 0.001104 -0.500000
v 0.500000 0.001104 -0.500000
v 0.500000 0.001104 0.500000
vt 1.000000 0.000000
vt 1.000000 1.000000
vt 0.000000 1.000000
vt 0.000000 0.000000
vn 0.0000 -1.0000 -0.0000
usemtl None
s 1
f 13/1/4 14/2/4 15/3/4 16/4/4
